<svg data-v-423bf9ae="" xmlns="http://www.w3.org/2000/svg" viewBox="0 0 758 183" class="iconLeftSlogan"><!----><defs data-v-423bf9ae=""><linearGradient data-v-423bf9ae="" gradientTransform="rotate(25)" id="acbc9320-5b92-48d7-b3e0-6238cb8352da" x1="0%" y1="0%" x2="100%" y2="0%"><stop data-v-423bf9ae="" offset="0%" style="stop-color: rgb(0, 238, 225); stop-opacity: 1;"></stop><stop data-v-423bf9ae="" offset="100%" style="stop-color: rgb(255, 210, 51); stop-opacity: 1;"></stop></linearGradient></defs><!----><g data-v-423bf9ae="" id="f765ef8f-f1d0-4920-9f14-20bae14b43b6" fill="#ffffff" transform="matrix(6.349206477356088,0,0,6.349206477356088,179.0349278026069,0.06349182060443326)"><path d="M1.97 9.44C3.65 9.44 4.44 8.48 4.44 6.66L4.44 2.77C4.44 0.95 3.65 0 1.97 0L0.55 0C0.27 0 0.04 0.22 0.04 0.50L0.04 8.93C0.04 9.21 0.27 9.44 0.55 9.44ZM1.97 1.39C2.72 1.39 3.02 1.83 3.02 2.77L3.02 6.66C3.02 7.60 2.72 8.05 1.97 8.05L1.43 8.05L1.43 1.39ZM8.51 9.04C8.57 9.25 8.79 9.44 9.00 9.44L9.41 9.44C9.74 9.44 9.97 9.14 9.90 8.82L7.97 0.39C7.92 0.18 7.69 0 7.48 0L7.17 0C6.96 0 6.73 0.18 6.68 0.39L5.40 5.87L4.73 8.83C4.66 9.16 4.89 9.44 5.22 9.44L5.63 9.44C5.84 9.44 6.06 9.25 6.12 9.04L6.61 6.86L8.04 6.86ZM7.32 3.23C7.59 4.42 7.56 4.80 7.71 5.47L6.93 5.47ZM14.97 6.58C14.97 5.85 14.77 5.28 14.36 4.84C14.41 4.80 14.43 4.77 14.48 4.73C14.91 4.30 15.06 3.60 15.06 2.73C15.06 0.85 14.46-0.01 12.74-0.01L10.98-0.01C10.70-0.01 10.47 0.21 10.47 0.49L10.47 8.92C10.47 9.20 10.70 9.42 10.98 9.42L11.37 9.42C11.63 9.42 11.86 9.20 11.86 8.92L11.86 5.49L12.49 5.49C13.17 5.49 13.57 5.88 13.57 6.58L13.57 8.92C13.57 9.20 13.79 9.42 14.07 9.42L14.46 9.42C14.74 9.42 14.97 9.20 14.97 8.92ZM11.86 1.39L12.74 1.39C13.47 1.39 13.68 1.78 13.68 2.73C13.68 3.68 13.27 4.07 12.49 4.07L11.86 4.07ZM17.42 3.53L17.42 0.50C17.42 0.22 17.19 0 16.91 0L16.52 0C16.24 0 16.02 0.22 16.02 0.50L16.02 8.93C16.02 9.21 16.24 9.44 16.52 9.44L16.91 9.44C17.19 9.44 17.42 9.21 17.42 8.93L17.42 6.16L17.58 5.91L19.46 9.18C19.53 9.31 19.75 9.44 19.89 9.44L20.34 9.44C20.76 9.44 20.99 9.04 20.79 8.68L18.44 4.54L20.78 0.77C21 0.41 20.78 0 20.34 0L19.87 0C19.73 0 19.52 0.13 19.45 0.24ZM25.90 9.44C26.18 9.44 26.40 9.21 26.40 8.93L26.40 0.50C26.40 0.22 26.18 0 25.90 0L25.51 0C25.23 0 25.00 0.22 25.00 0.50L25.00 5.12L23.06 0.31C23.00 0.15 22.78 0 22.60 0L22.26 0C21.99 0 21.76 0.22 21.76 0.50L21.76 8.93C21.76 9.21 21.99 9.44 22.26 9.44L22.67 9.44C22.93 9.44 23.17 9.21 23.17 8.93L23.17 4.31L25.12 9.13C25.17 9.28 25.41 9.44 25.58 9.44ZM28.00 0C27.72 0 27.50 0.22 27.50 0.50L27.50 8.93C27.50 9.21 27.72 9.44 28.00 9.44L31.02 9.44C31.30 9.44 31.53 9.21 31.53 8.93L31.53 8.55C31.53 8.27 31.30 8.05 31.02 8.05L28.88 8.05L28.88 5.40L30.65 5.40C30.93 5.40 31.15 5.18 31.15 4.90L31.15 4.52C31.15 4.24 30.93 4.02 30.65 4.02L28.88 4.02L28.88 1.39L31.02 1.39C31.30 1.39 31.53 1.16 31.53 0.88L31.53 0.50C31.53 0.22 31.30 0 31.02 0ZM32.00 6.69C32.00 8.53 32.77 9.42 34.31 9.42C35.80 9.42 36.62 8.58 36.62 7.01C36.62 5.66 35.69 4.94 34.76 4.23L34.78 4.23C34.09 3.70 33.40 3.15 33.40 2.44C33.40 1.71 33.73 1.39 34.31 1.39C34.93 1.39 35.22 1.81 35.22 2.73L35.22 2.93C35.22 3.21 35.45 3.43 35.73 3.43L36.12 3.43C36.40 3.43 36.62 3.21 36.62 2.93L36.62 2.73C36.62 0.95 35.83-0.01 34.31-0.01C32.83-0.01 32.00 0.90 32.00 2.48C32.00 3.86 32.97 4.62 33.89 5.35L33.89 5.33C34.58 5.87 35.22 6.38 35.22 7.04C35.22 7.78 34.90 8.04 34.31 8.04C34.12 8.04 33.88 8.01 33.73 7.85C33.53 7.69 33.40 7.36 33.40 6.69L33.40 6.51C33.40 6.23 33.17 6.01 32.90 6.01L32.51 6.01C32.23 6.01 32.00 6.23 32.00 6.51ZM37.58 6.69C37.58 8.53 38.35 9.42 39.89 9.42C41.37 9.42 42.20 8.58 42.20 7.01C42.20 5.66 41.26 4.94 40.33 4.23L40.35 4.23C39.66 3.70 38.98 3.15 38.98 2.44C38.98 1.71 39.30 1.39 39.89 1.39C40.50 1.39 40.80 1.81 40.80 2.73L40.80 2.93C40.80 3.21 41.02 3.43 41.30 3.43L41.69 3.43C41.97 3.43 42.20 3.21 42.20 2.93L42.20 2.73C42.20 0.95 41.40-0.01 39.89-0.01C38.40-0.01 37.58 0.90 37.58 2.48C37.58 3.86 38.54 4.62 39.47 5.35L39.47 5.33C40.15 5.87 40.80 6.38 40.80 7.04C40.80 7.78 40.47 8.04 39.89 8.04C39.69 8.04 39.45 8.01 39.30 7.85C39.10 7.69 38.98 7.36 38.98 6.69L38.98 6.51C38.98 6.23 38.74 6.01 38.47 6.01L38.08 6.01C37.80 6.01 37.58 6.23 37.58 6.51ZM47.43 0.50C47.43 0.22 47.19 0 46.93 0L46.54 0C46.26 0 46.03 0.22 46.03 0.50L46.03 8.93C46.03 9.21 46.26 9.44 46.54 9.44L46.93 9.44C47.19 9.44 47.43 9.21 47.43 8.93ZM52.51 9.44C52.79 9.44 53.02 9.21 53.02 8.93L53.02 0.50C53.02 0.22 52.79 0 52.51 0L52.12 0C51.84 0 51.62 0.22 51.62 0.50L51.62 5.12L49.67 0.31C49.62 0.15 49.39 0 49.21 0L48.87 0C48.61 0 48.37 0.22 48.37 0.50L48.37 8.93C48.37 9.21 48.61 9.44 48.87 9.44L49.28 9.44C49.55 9.44 49.78 9.21 49.78 8.93L49.78 4.31L51.73 9.13C51.79 9.28 52.02 9.44 52.19 9.44ZM54.07 0.88C54.07 1.16 54.29 1.39 54.57 1.39L55.71 1.39L55.71 8.92C55.71 9.20 55.93 9.42 56.21 9.42L56.59 9.42C56.87 9.42 57.09 9.20 57.09 8.92L57.09 1.39L58.24 1.39C58.52 1.39 58.74 1.16 58.74 0.88L58.74 0.49C58.74 0.21 58.52-0.01 58.24-0.01L54.57-0.01C54.29-0.01 54.07 0.21 54.07 0.49ZM59.74 6.69C59.74 7.80 60.05 8.44 60.48 8.88C60.94 9.32 61.53 9.44 62.03 9.44C62.55 9.44 63.14 9.32 63.60 8.88C64.04 8.44 64.33 7.80 64.33 6.69L64.33 2.73C64.33 0.95 63.57 0 62.03 0C60.51 0 59.74 0.97 59.74 2.73ZM61.14 2.73C61.14 1.82 61.42 1.39 62.03 1.39C62.64 1.39 62.93 1.79 62.93 2.73L62.93 6.69C62.93 7.64 62.62 8.05 62.03 8.05C61.43 8.05 61.14 7.62 61.14 6.69ZM72.25 8.55C72.25 8.27 72.03 8.05 71.75 8.05L69.66 8.05L69.66 0.50C69.66 0.22 69.44 0 69.17 0L68.77 0C68.49 0 68.26 0.22 68.26 0.50L68.26 8.93C68.26 9.21 68.49 9.44 68.77 9.44L71.75 9.44C72.03 9.44 72.25 9.21 72.25 8.93ZM74.40 0.50C74.40 0.22 74.16 0 73.89 0L73.50 0C73.22 0 73.00 0.22 73.00 0.50L73.00 8.93C73.00 9.21 73.22 9.44 73.50 9.44L73.89 9.44C74.16 9.44 74.40 9.21 74.40 8.93ZM78.06 4.70C77.24 4.70 77.28 6.10 78.06 6.10L78.55 6.10L78.55 6.71C78.55 7.62 78.26 8.05 77.66 8.05C77.04 8.05 76.75 7.62 76.75 6.71C76.75 6.34 76.75 4.94 76.75 2.72C76.75 2.07 76.87 1.74 77.07 1.57C77.22 1.41 77.46 1.39 77.66 1.39C77.85 1.39 78.08 1.41 78.25 1.57C78.41 1.72 78.55 2.06 78.55 2.72L78.55 2.91C78.55 3.19 78.78 3.42 79.06 3.42L79.46 3.42C79.73 3.42 79.95 3.19 79.95 2.91L79.95 2.72C79.95 0.94 79.20 0 77.66 0C76.12 0 75.35 0.94 75.35 2.72L75.35 6.71C75.35 8.47 76.12 9.44 77.66 9.44C79.20 9.44 79.95 8.48 79.95 6.71L79.95 5.21C79.95 4.93 79.73 4.70 79.46 4.70L78.06 4.70ZM82.38 4.03L82.38 0.50C82.38 0.22 82.15 0 81.87 0L81.48 0C81.20 0 80.98 0.22 80.98 0.50L80.98 8.93C80.98 9.21 81.20 9.44 81.48 9.44L81.87 9.44C82.15 9.44 82.38 9.21 82.38 8.93L82.38 5.42L83.93 5.42L83.93 8.93C83.93 9.21 84.15 9.44 84.43 9.44L84.83 9.44C85.11 9.44 85.33 9.21 85.33 8.93L85.33 0.50C85.33 0.22 85.11 0 84.83 0L84.43 0C84.15 0 83.93 0.22 83.93 0.50L83.93 4.03ZM86.44 0.88C86.44 1.16 86.66 1.39 86.94 1.39L88.07 1.39L88.07 8.92C88.07 9.20 88.30 9.42 88.58 9.42L88.96 9.42C89.24 9.42 89.46 9.20 89.46 8.92L89.46 1.39L90.61 1.39C90.89 1.39 91.11 1.16 91.11 0.88L91.11 0.49C91.11 0.21 90.89-0.01 90.61-0.01L86.94-0.01C86.66-0.01 86.44 0.21 86.44 0.49Z"></path></g><!----><g data-v-423bf9ae="" id="faa32645-babc-486c-8e9e-bb83cc9fc66d" transform="matrix(1.4222222222222223,0,0,1.4222222222222223,-11.022222222222226,0.9777777777777743)" stroke="none" fill="#ffffff"><path d="M117.395 63.19c-1.68-1.746-3.57-2.44-5.492-2.44-3.653 0-7.42 2.506-10.075 5.062-.045.042-12.81 10.63-17.148 14.909-.787.775-2.32 1.404-3.425 1.404-4.238 4.751-10.402 7.75-17.255 7.75s-13.016-2.999-17.254-7.75h-.376c-1.105 0-2.676-.587-3.51-1.312L25.8 65.986c-2.605-2.506-6.29-5.146-9.865-5.147-1.588 0-3.154.522-4.594 1.81-5.04 4.502-1.85 10.366 2.147 14.194.083.077 19.162 18.354 19.162 18.354s7.503 7.957 8.037 12.78V119.5a8.5 8.5 0 0 0 8.5 8.5h30.689a8.5 8.5 0 0 0 8.5-8.5v-11.522c.531-4.824 7.572-12.78 7.572-12.78l18.688-18.544c3.412-3.51 6.834-9.223 2.76-13.464z"></path><circle cx="64" cy="66.751" r="19.125"></circle><circle cx="18" cy="43" r="10"></circle><circle cx="64" cy="10" r="10"></circle><path d="M35.993 11c-1.813 0-3.65.493-5.3 1.527a9.995 9.995 0 0 0-3.166 13.78 9.988 9.988 0 0 0 13.78 3.166 9.995 9.995 0 0 0 3.166-13.78A9.987 9.987 0 0 0 35.993 11zM86.69 28.472A9.952 9.952 0 0 0 91.992 30c3.327 0 6.58-1.66 8.479-4.69a9.994 9.994 0 0 0-3.161-13.78A9.955 9.955 0 0 0 92.007 10a9.987 9.987 0 0 0-8.479 4.69 9.994 9.994 0 0 0 3.162 13.78z"></path><circle cx="110" cy="43" r="10"></circle></g><!----><g data-v-423bf9ae="" id="cb31140c-f746-451a-bb55-3f255800dd93" fill="#ffffff" transform="matrix(3.5115600134150067,0,0,3.5115600134150067,178.55145455752574,39.35202980617027)"><path d="M7.10 15.68L6.38 13.24L2.18 13.24L1.47 15.68L0.21 15.68L3.18 5.88L5.39 5.88L8.36 15.68L7.10 15.68ZM4.37 6.38L4.20 6.38L2.51 12.15L6.06 12.15L4.37 6.38ZM16.37 15.68L16.37 14.59L17.21 14.59L17.21 6.97L16.37 6.97L16.37 5.88L20.33 5.88L20.33 5.88Q21.03 5.88 21.57 6.08L21.57 6.08L21.57 6.08Q22.11 6.27 22.48 6.61L22.48 6.61L22.48 6.61Q22.85 6.94 23.04 7.41L23.04 7.41L23.04 7.41Q23.23 7.88 23.23 8.43L23.23 8.43L23.23 8.60L23.23 8.60Q23.23 9.00 23.10 9.34L23.10 9.34L23.10 9.34Q22.97 9.67 22.75 9.94L22.75 9.94L22.75 9.94Q22.53 10.21 22.23 10.39L22.23 10.39L22.23 10.39Q21.92 10.58 21.57 10.68L21.57 10.68L21.57 10.85L21.57 10.85Q22.27 11.05 22.75 11.60L22.75 11.60L22.75 11.60Q23.23 12.15 23.23 12.95L23.23 12.95L23.23 13.12L23.23 13.12Q23.23 13.66 23.04 14.13L23.04 14.13L23.04 14.13Q22.85 14.60 22.48 14.95L22.48 14.95L22.48 14.95Q22.11 15.29 21.57 15.48L21.57 15.48L21.57 15.48Q21.03 15.68 20.33 15.68L20.33 15.68L16.37 15.68ZM18.38 11.31L18.38 14.59L20.24 14.59L20.24 14.59Q21.07 14.59 21.59 14.17L21.59 14.17L21.59 14.17Q22.11 13.76 22.11 13.03L22.11 13.03L22.11 12.95L22.11 12.95Q22.11 12.19 21.62 11.75L21.62 11.75L21.62 11.75Q21.13 11.31 20.29 11.31L20.29 11.31L18.38 11.31ZM18.38 6.97L18.38 10.22L20.29 10.22L20.29 10.22Q21.13 10.22 21.62 9.79L21.62 9.79L21.62 9.79Q22.11 9.35 22.11 8.60L22.11 8.60L22.11 8.51L22.11 8.51Q22.11 7.80 21.59 7.38L21.59 7.38L21.59 7.38Q21.07 6.97 20.24 6.97L20.24 6.97L18.38 6.97ZM32.06 5.88L33.24 5.88L33.24 12.38L33.24 12.38Q33.24 13.57 33.79 14.17L33.79 14.17L33.79 14.17Q34.34 14.78 35.42 14.78L35.42 14.78L35.42 14.78Q36.50 14.78 37.05 14.17L37.05 14.17L37.05 14.17Q37.60 13.57 37.60 12.38L37.60 12.38L37.60 5.88L38.78 5.88L38.78 12.38L38.78 12.38Q38.78 14.08 37.88 14.98L37.88 14.98L37.88 14.98Q36.99 15.88 35.42 15.88L35.42 15.88L35.42 15.88Q33.85 15.88 32.96 14.98L32.96 14.98L32.96 14.98Q32.06 14.08 32.06 12.38L32.06 12.38L32.06 5.88ZM63.29 6.97L63.29 5.88L66.51 5.88L66.51 5.88Q68.33 5.88 69.17 6.75L69.17 6.75L69.17 6.75Q70.01 7.62 70.01 9.52L70.01 9.52L70.01 12.04L70.01 12.04Q70.01 13.94 69.17 14.81L69.17 14.81L69.17 14.81Q68.33 15.68 66.51 15.68L66.51 15.68L63.29 15.68L63.29 14.57L64.13 14.57L64.13 6.97L63.29 6.97ZM65.31 14.59L66.35 14.59L66.35 14.59Q66.99 14.59 67.46 14.46L67.46 14.46L67.46 14.46Q67.93 14.34 68.24 14.04L68.24 14.04L68.24 14.04Q68.54 13.73 68.69 13.23L68.69 13.23L68.69 13.23Q68.84 12.73 68.84 11.96L68.84 11.96L68.84 9.60L68.84 9.60Q68.84 8.83 68.69 8.33L68.69 8.33L68.69 8.33Q68.54 7.83 68.24 7.53L68.24 7.53L68.24 7.53Q67.93 7.22 67.46 7.10L67.46 7.10L67.46 7.10Q66.99 6.97 66.35 6.97L66.35 6.97L65.31 6.97L65.31 14.59ZM78.86 15.68L78.86 5.88L80.04 5.88L80.04 10.22L84.21 10.22L84.21 5.88L85.39 5.88L85.39 15.68L84.21 15.68L84.21 11.31L80.04 11.31L80.04 15.68L78.86 15.68ZM100.51 15.68L99.79 13.24L95.59 13.24L94.88 15.68L93.62 15.68L96.59 5.88L98.80 5.88L101.77 15.68L100.51 15.68ZM97.78 6.38L97.61 6.38L95.91 12.15L99.47 12.15L97.78 6.38ZM109.77 15.68L109.77 14.59L110.61 14.59L110.61 6.97L109.77 6.97L109.77 5.88L113.74 5.88L113.74 5.88Q114.44 5.88 114.97 6.08L114.97 6.08L114.97 6.08Q115.51 6.27 115.89 6.61L115.89 6.61L115.89 6.61Q116.26 6.94 116.44 7.41L116.44 7.41L116.44 7.41Q116.63 7.88 116.63 8.43L116.63 8.43L116.63 8.60L116.63 8.60Q116.63 9.00 116.51 9.34L116.51 9.34L116.51 9.34Q116.38 9.67 116.16 9.94L116.16 9.94L116.16 9.94Q115.93 10.21 115.63 10.39L115.63 10.39L115.63 10.39Q115.33 10.58 114.98 10.68L114.98 10.68L114.98 10.85L114.98 10.85Q115.68 11.05 116.16 11.60L116.16 11.60L116.16 11.60Q116.63 12.15 116.63 12.95L116.63 12.95L116.63 13.12L116.63 13.12Q116.63 13.66 116.44 14.13L116.44 14.13L116.44 14.13Q116.26 14.60 115.89 14.95L115.89 14.95L115.89 14.95Q115.51 15.29 114.97 15.48L114.97 15.48L114.97 15.48Q114.44 15.68 113.74 15.68L113.74 15.68L109.77 15.68ZM111.79 11.31L111.79 14.59L113.65 14.59L113.65 14.59Q114.48 14.59 115.00 14.17L115.00 14.17L115.00 14.17Q115.51 13.76 115.51 13.03L115.51 13.03L115.51 12.95L115.51 12.95Q115.51 12.19 115.02 11.75L115.02 11.75L115.02 11.75Q114.53 11.31 113.69 11.31L113.69 11.31L111.79 11.31ZM111.79 6.97L111.79 10.22L113.69 10.22L113.69 10.22Q114.53 10.22 115.02 9.79L115.02 9.79L115.02 9.79Q115.51 9.35 115.51 8.60L115.51 8.60L115.51 8.51L115.51 8.51Q115.51 7.80 115.00 7.38L115.00 7.38L115.00 7.38Q114.48 6.97 113.65 6.97L113.65 6.97L111.79 6.97ZM125.72 6.97L125.72 5.88L131.94 5.88L131.94 6.97L129.42 6.97L129.42 14.59L131.94 14.59L131.94 15.68L125.72 15.68L125.72 14.59L128.24 14.59L128.24 6.97L125.72 6.97Z"></path></g></svg>