<svg data-v-423bf9ae="" xmlns="http://www.w3.org/2000/svg" viewBox="0 0 52.5 60" class="icon"><!----><!----><!----><!----><g data-v-423bf9ae="" id="1c7dbd97-87be-4b9f-a7ed-3aff4cdaa26c" transform="matrix(0.46875,0,0,0.46875,-3.75,0)" stroke="none" fill="black"><path d="M117.395 63.19c-1.68-1.746-3.57-2.44-5.492-2.44-3.653 0-7.42 2.506-10.075 5.062-.045.042-12.81 10.63-17.148 14.909-.787.775-2.32 1.404-3.425 1.404-4.238 4.751-10.402 7.75-17.255 7.75s-13.016-2.999-17.254-7.75h-.376c-1.105 0-2.676-.587-3.51-1.312L25.8 65.986c-2.605-2.506-6.29-5.146-9.865-5.147-1.588 0-3.154.522-4.594 1.81-5.04 4.502-1.85 10.366 2.147 14.194.083.077 19.162 18.354 19.162 18.354s7.503 7.957 8.037 12.78V119.5a8.5 8.5 0 0 0 8.5 8.5h30.689a8.5 8.5 0 0 0 8.5-8.5v-11.522c.531-4.824 7.572-12.78 7.572-12.78l18.688-18.544c3.412-3.51 6.834-9.223 2.76-13.464z"></path><circle cx="64" cy="66.751" r="19.125"></circle><circle cx="18" cy="43" r="10"></circle><circle cx="64" cy="10" r="10"></circle><path d="M35.993 11c-1.813 0-3.65.493-5.3 1.527a9.995 9.995 0 0 0-3.166 13.78 9.988 9.988 0 0 0 13.78 3.166 9.995 9.995 0 0 0 3.166-13.78A9.987 9.987 0 0 0 35.993 11zM86.69 28.472A9.952 9.952 0 0 0 91.992 30c3.327 0 6.58-1.66 8.479-4.69a9.994 9.994 0 0 0-3.161-13.78A9.955 9.955 0 0 0 92.007 10a9.987 9.987 0 0 0-8.479 4.69 9.994 9.994 0 0 0 3.162 13.78z"></path><circle cx="110" cy="43" r="10"></circle></g><!----></svg>